<?xml version="1.0" encoding="UTF-8"?>
<svg width="124px" height="124px" viewBox="0 0 124 124" version="1.1" xmlns="http://www.w3.org/2000/svg" xmlns:xlink="http://www.w3.org/1999/xlink">
    <!-- Generator: sketchtool 42 (36781) - http://www.bohemiancoding.com/sketch -->
    <title>92E0358B-0E25-49A5-8A71-C013E145B8F3</title>
    <desc>Created with sketchtool.</desc>
    <defs></defs>
    <g id="登录" stroke="none" stroke-width="1" fill="none" fill-rule="evenodd">
        <g id="1.1登录-隐身" transform="translate(-93.000000, -82.000000)">
            <g id="默认头像" transform="translate(93.000000, 82.000000)">
                <ellipse id="头像" stroke="#CCD0D7" stroke-width="4" fill="#CCD0D7" cx="62" cy="62" rx="60" ry="60"></ellipse>
                <path d="M38.8332526,81.366837 C33.9570056,76.2358599 31,69.5061036 31,62.1375 C31,46.0453031 45.1030304,33 62.5,33 C79.8969696,33 94,46.0453031 94,62.1375 C94,78.2296969 79.8969696,91.275 62.5,91.275 C57.8313628,91.275 53.3999442,90.3355207 49.4146442,88.6497948 C47.3625049,87.7817686 45.9253328,91.275 36.3709847,91.275 C40.2622245,86.9779073 40.2768134,82.8858079 38.8332526,81.366837 Z M43.4884432,75.1697653 C44.5294409,74.9942345 45.5823709,74.7623941 46.6893813,74.4126918 L46.6893813,72.2983616 C45.7093923,73.0606777 44.6581943,73.7051319 43.4884432,74.2319184 L43.4884432,75.1697653 Z M71.8727117,61.9777743 C71.8727117,61.9777743 73.9231443,74.9379249 73.9753,75.4120909 L80.05,75.4120909 C79.9385676,74.8150145 75.9073718,49.9061512 75.7818901,49.5444102 C75.7818901,49.5444102 75.7818901,49.0158762 75.4302719,49.0158762 L70.8176646,49.0158762 C70.2989941,49.0158762 70.4138907,49.5444102 70.4138907,49.5444102 C70.4729749,50.0694491 70.2964917,51.7013227 70.0925696,53.6197579 C69.5235918,57.8370088 67.9279802,64.5090622 65.2569031,67.5583892 C64.7370939,68.1372025 64.6469203,68.0660338 64.6469203,68.0660338 C64.6469203,68.0660338 61.7681631,49.9640142 61.7106185,49.5444102 C61.7106185,49.5444102 61.7106185,49.0158762 61.3555361,49.0158762 L56.6823051,49.0158762 C56.276799,49.0158762 56.276799,49.4865472 56.276799,49.4865472 C56.2125185,51.4901998 55.2864174,65.6938226 46.6895737,72.2985558 L46.6895737,74.4128859 C47.9880784,74.0002722 49.2638731,73.3521287 50.4944406,72.577774 C54.4665523,70.1156832 57.1540162,66.3417719 58.0244974,62.037579 C58.0244974,62.037579 59.8162392,72.8380115 60.0529608,75.3721397 C61.0112024,74.95811 69.6280108,70.7994485 71.8727117,61.9777743 Z M43.4884432,74.2319184 C42.4980615,74.6427846 41.4432069,74.9942345 40.3292681,75.2996658 C41.3335067,75.345296 42.3727723,75.345296 43.4884432,75.1697653 L43.4884432,74.2319184 Z" id="Oval-245" fill="#FFFFFF"></path>
            </g>
        </g>
    </g>
</svg>