<?xml version="1.0" encoding="UTF-8"?>
<svg width="20px" height="20px" viewBox="0 0 20 20" version="1.1" xmlns="http://www.w3.org/2000/svg" xmlns:xlink="http://www.w3.org/1999/xlink">
    <!-- Generator: sketchtool 42 (36781) - http://www.bohemiancoding.com/sketch -->
    <title>2B0B59FA-A056-4970-8C94-1811DD161ACE</title>
    <desc>Created with sketchtool.</desc>
    <defs>
        <rect id="path-1" x="1" y="7" width="18" height="13" rx="2"></rect>
        <mask id="mask-2" maskContentUnits="userSpaceOnUse" maskUnits="objectBoundingBox" x="0" y="0" width="18" height="13" fill="white">
            <use xlink:href="#path-1"></use>
        </mask>
    </defs>
    <g id="登录" stroke="none" stroke-width="1" fill="none" fill-rule="evenodd">
        <g id="1.1登录-隐身" transform="translate(-52.000000, -307.000000)">
            <g id="输入框" transform="translate(35.000000, 247.000000)">
                <g id="锁" transform="translate(17.000000, 60.000000)">
                    <rect id="Path" fill="#D8D8D8" opacity="0" x="0" y="0" width="20" height="20"></rect>
                    <use id="Rectangle-15" stroke="#ABAAB8" mask="url(#mask-2)" stroke-width="2" xlink:href="#path-1"></use>
                    <path d="M5,5 C5,2.23857625 7.23857625,0 10,0 C12.7614237,0 15,2.23857625 15,5 L14,5 C14,2.790861 12.209139,1 10,1 C7.790861,1 6,2.790861 6,5 L5,5 Z M9.5,13.9146471 C8.91740381,13.7087289 8.5,13.1531094 8.5,12.5 C8.5,11.6715729 9.17157288,11 10,11 C10.8284271,11 11.5,11.6715729 11.5,12.5 C11.5,13.1531094 11.0825962,13.7087289 10.5,13.9146471 L10.5,15.504611 C10.5,15.7782068 10.2680664,16 10,16 C9.72385763,16 9.5,15.7842474 9.5,15.504611 L9.5,13.9146471 Z M14,5 L15,5 L15,7.00902457 L14,7.00902457 L14,5 Z M5,5 L6,5 L6,7.00902457 L5,7.00902457 L5,5 Z" id="Oval-19" fill="#ABABB8"></path>
                </g>
            </g>
        </g>
    </g>
</svg>