<?xml version="1.0" encoding="UTF-8"?>
<svg width="18px" height="18px" viewBox="0 0 18 18" version="1.1" xmlns="http://www.w3.org/2000/svg" xmlns:xlink="http://www.w3.org/1999/xlink">
    <!-- Generator: sketchtool 42 (36781) - http://www.bohemiancoding.com/sketch -->
    <title>4CAF9BA2-2555-4B8A-90F5-7D212B878828</title>
    <desc>Created with sketchtool.</desc>
    <defs></defs>
    <g id="登录" stroke="none" stroke-width="1" fill="none" fill-rule="evenodd">
        <g id="1.1登录-隐身" transform="translate(-146.000000, -196.000000)">
            <g id="状态" transform="translate(146.000000, 196.000000)">
                <circle id="Oval-234" fill="#FCB23C" cx="9" cy="9" r="9"></circle>
                <path d="M12.3722534,6.3999939 C12.7189483,6.3999939 13,6.67740941 13,7.0249939 C13,7.37017187 12.7152758,7.6499939 12.3722534,7.6499939 L5.62774658,7.6499939 C5.28105172,7.6499939 5,7.37257838 5,7.0249939 C5,6.67981593 5.28472424,6.3999939 5.62774658,6.3999939 L12.3722534,6.3999939 Z M12.3722534,10.3999939 C12.7189483,10.3999939 13,10.6774094 13,11.0249939 C13,11.3701719 12.7152758,11.6499939 12.3722534,11.6499939 L5.62774658,11.6499939 C5.28105172,11.6499939 5,11.3725784 5,11.0249939 C5,10.6798159 5.28472424,10.3999939 5.62774658,10.3999939 L12.3722534,10.3999939 Z" id="Combined-Shape" fill="#FFFFFF"></path>
            </g>
        </g>
    </g>
</svg>