<?xml version="1.0" encoding="UTF-8"?>
<svg width="20px" height="20px" viewBox="0 0 20 20" version="1.1" xmlns="http://www.w3.org/2000/svg" xmlns:xlink="http://www.w3.org/1999/xlink">
    <!-- Generator: sketchtool 42 (36781) - http://www.bohemiancoding.com/sketch -->
    <title>DEB793A6-7A54-4B04-AF78-8EBBD0EA0F54</title>
    <desc>Created with sketchtool.</desc>
    <defs></defs>
    <g id="登录" stroke="none" stroke-width="1" fill="none" fill-rule="evenodd">
        <g id="1.1登录-隐身" transform="translate(-52.000000, -257.000000)" fill="#ABAAB8">
            <g id="输入框" transform="translate(35.000000, 247.000000)">
                <g id="用户" transform="translate(17.000000, 10.000000)">
                    <path d="M17.9690531,20 L2.03094688,20 L1.05492878,20 C1.01863331,19.6716661 1,19.3380091 1,19 C1,14.0294373 5.02943725,11.5 10,11.5 C14.9705627,11.5 19,14.0294373 19,19 C19,19.3380091 18.9813667,19.6716661 18.9450712,20 L17.9690531,20 Z M18,19 C18,14.581722 14.418278,12.5 10,12.5 C5.581722,12.5 2,14.581722 2,19 L18,19 Z" id="Oval-21"></path>
                    <path d="M10,11 C6.96243388,11 4.5,8.53756612 4.5,5.5 C4.5,2.46243388 6.96243388,0 10,0 C13.0375661,0 15.5,2.46243388 15.5,5.5 C15.5,8.53756612 13.0375661,11 10,11 Z M10,10 C12.4852814,10 14.5,7.98528137 14.5,5.5 C14.5,3.01471863 12.4852814,1 10,1 C7.51471863,1 5.5,3.01471863 5.5,5.5 C5.5,7.98528137 7.51471863,10 10,10 Z" id="Oval-20"></path>
                </g>
            </g>
        </g>
    </g>
</svg>